<?xml version="1.0" encoding="UTF-8" standalone="no"?>
<!-- Created with Inkscape (http://www.inkscape.org/) -->

<svg
   width="100mm"
   height="100mm"
   viewBox="0 0 100 99.999999"
   version="1.1"
   id="svg321"
   inkscape:version="1.2.1 (ef4d3fba62, 2022-07-19, custom)"
   sodipodi:docname="blescan.svg"
   xmlns:inkscape="http://www.inkscape.org/namespaces/inkscape"
   xmlns:sodipodi="http://sodipodi.sourceforge.net/DTD/sodipodi-0.dtd"
   xmlns="http://www.w3.org/2000/svg"
   xmlns:svg="http://www.w3.org/2000/svg">
  <sodipodi:namedview
     id="namedview323"
     pagecolor="#ffffff"
     bordercolor="#000000"
     borderopacity="0.25"
     inkscape:showpageshadow="2"
     inkscape:pageopacity="0.0"
     inkscape:pagecheckerboard="0"
     inkscape:deskcolor="#d1d1d1"
     inkscape:document-units="mm"
     showgrid="false"
     inkscape:zoom="2.1946698"
     inkscape:cx="195.4736"
     inkscape:cy="184.76584"
     inkscape:window-width="1920"
     inkscape:window-height="1080"
     inkscape:window-x="0"
     inkscape:window-y="0"
     inkscape:window-maximized="1"
     inkscape:current-layer="layer2" />
  <defs
     id="defs318" />
  <g
     inkscape:label="big_puckman"
     inkscape:groupmode="layer"
     id="layer1"
     transform="translate(-56.076244,-77.019772)" />
  <g
     inkscape:groupmode="layer"
     id="layer2"
     inkscape:label="small_puckman">
    <g
       id="g3971"
       transform="translate(-0.32227707,-0.24317169)">
      <path
         id="path555"
         style="fill:#5599ff;stroke-width:0.50547;stroke-linecap:round"
         inkscape:label="big_body"
         d="M 86.723804,82.382552 A 48.923756,50 0 0 1 32.513123,97.227803 48.923756,50 0 0 1 0.32227707,50.243172 48.923756,50 0 0 1 32.513123,3.2585407 48.923756,50 0 0 1 86.723804,18.103791 L 49.246033,50.243172 Z" />
      <path
         d="M 13.737713,35.289078 42.903652,65.196451 28.3203,80.100622 V 20.385708 L 42.903652,35.289875 13.737713,65.197228"
         fill-opacity="0"
         stroke="#ffffff"
         stroke-linejoin="round"
         stroke-width="5.74585"
         id="path49"
         style="fill:#5599ff;stroke-width:5.80886;stroke-linejoin:miter;stroke-dasharray:none"
         inkscape:label="big_bluetooth" />
      <path
         id="path4641"
         style="fill:#ffffff;stroke-width:13.1078;stroke-linecap:round"
         inkscape:label="big_eye"
         d="m 70.13067,21.459131 a 9.6960497,9.9093475 0 0 1 -9.69605,9.909348 9.6960497,9.9093475 0 0 1 -9.69605,-9.909348 9.6960497,9.9093475 0 0 1 9.69605,-9.909347 9.6960497,9.9093475 0 0 1 9.69605,9.909347 z" />
      <path
         id="path369"
         style="fill:#5599ff;stroke-width:3.78642;stroke-linecap:round"
         d="m 72.875087,25.125051 a 6.1728015,6.6367307 0 0 1 -6.172801,6.636731 6.1728015,6.6367307 0 0 1 -6.172802,-6.636731 6.1728015,6.6367307 0 0 1 6.172802,-6.63673 6.1728015,6.6367307 0 0 1 6.172801,6.63673 z" />
    </g>
    <g
       id="g3977"
       transform="matrix(1.0496493,0,0,1.0496493,-4.9215301,-2.482465)">
      <path
         id="path660"
         style="fill:#5599ff;stroke-width:0.492399;stroke-linecap:round"
         inkscape:label="small_body"
         d="M 100.05529,56.184949 A 18.089443,18.083582 0 0 1 79.915571,67.808852 18.089443,18.083582 0 0 1 64.967327,50 18.089443,18.083582 0 0 1 79.915572,32.191148 18.089443,18.083582 0 0 1 100.05529,43.815051 L 83.05677,50 Z" />
      <path
         d="m 69.450855,44.895364 10.173669,10.209002 -5.086972,5.087596 V 39.808033 l 5.086972,5.087587 -10.173669,10.209011"
         fill-opacity="0"
         stroke="#ffffff"
         stroke-linejoin="round"
         stroke-width="2.0044"
         id="path753"
         style="fill:#5599ff;stroke-linejoin:miter"
         inkscape:label="small_bluetooth" />
      <path
         id="path529"
         style="fill:#ffffff;stroke-width:1.4598;stroke-linecap:round"
         inkscape:label="small_eye"
         d="m 95.234576,40.060158 a 5.3428979,5.3435626 0 0 1 -5.342898,5.343562 5.3428979,5.3435626 0 0 1 -5.342898,-5.343562 5.3428979,5.3435626 0 0 1 5.342898,-5.343563 5.3428979,5.3435626 0 0 1 5.342898,5.343563 z" />
      <path
         id="path1253"
         style="fill:#5599ff;stroke-width:2.51886;stroke-linecap:round"
         d="m 95.999738,40.060158 a 2.617131,2.6717813 0 0 1 -2.617131,2.671781 2.617131,2.6717813 0 0 1 -2.617131,-2.671781 2.617131,2.6717813 0 0 1 2.617131,-2.671782 2.617131,2.6717813 0 0 1 2.617131,2.671782 z" />
    </g>
  </g>
</svg>
